<svg version="1.1" id="Layer_1" xmlns="http://www.w3.org/2000/svg" xmlns:xlink="http://www.w3.org/1999/xlink" x="0px" y="0px"
	 width="100%" viewBox="0 0 1024 1024" enable-background="new 0 0 1024 1024" xml:space="preserve">
<path fill="#000000" opacity="1.000000" stroke="none" 
	d="
M547.994202,670.134033 
	C545.330017,670.161438 543.106140,669.873535 541.007690,670.262390 
	C532.702820,671.801331 528.323975,668.057129 525.339233,660.486206 
	C521.985046,651.978271 517.345703,644.009155 511.279144,637.005920 
	C503.571198,628.107971 493.845764,624.337219 482.261993,626.215759 
	C471.807678,627.911072 461.323730,627.247559 450.858246,627.182312 
	C446.072052,627.152405 443.472443,628.138611 444.247437,633.485657 
	C444.581970,635.793945 443.936890,637.675415 441.329620,638.561462 
	C424.476746,644.288513 408.094269,651.494568 390.620392,655.270081 
	C363.497925,661.130371 338.353241,650.103882 324.161865,626.001038 
	C312.304230,605.861755 308.717804,584.068726 312.315216,561.033936 
	C316.803528,532.294189 323.282990,503.928680 328.401367,475.307800 
	C329.301544,470.273987 329.986298,465.201630 331.920319,460.033997 
	C332.407349,461.978821 332.904541,463.921143 333.379883,465.868835 
	C337.043396,480.879913 342.411102,495.135345 352.035400,507.461029 
	C353.707703,509.602783 354.101685,511.703674 353.596222,514.407654 
	C350.540100,530.755920 347.538239,547.116638 344.784119,563.517883 
	C343.304291,572.330627 345.003815,580.877686 349.250092,588.639404 
	C356.533295,601.952271 368.863495,607.128784 383.937531,603.019775 
	C401.143311,598.329712 417.500427,591.132263 434.274261,585.158936 
	C451.983215,578.852539 469.621399,572.258728 488.356232,569.516663 
	C513.748230,565.800232 535.770081,577.140747 547.623657,599.960754 
	C558.632141,621.153992 566.296204,643.739990 575.019287,665.883362 
	C578.802002,675.485657 582.165649,685.261719 586.219421,694.745239 
	C588.633484,700.392822 589.837646,705.598511 586.648071,711.315918 
	C585.310852,713.712891 584.755005,716.545715 583.872925,719.096313 
	C581.376831,718.858948 581.389648,717.031128 580.893311,715.755615 
	C575.761963,702.569092 570.535034,689.415649 565.698730,676.120667 
	C564.090149,671.698730 561.841614,669.485352 556.984070,670.059448 
	C554.189758,670.389709 551.325134,670.126038 547.994202,670.134033 
z"/>
<path fill="#000000" opacity="1.000000" stroke="none" 
	d="
M370.186005,468.825226 
	C379.588928,488.885529 394.220367,502.202728 415.823547,506.945587 
	C420.665192,508.008514 425.707520,508.496735 430.671295,508.603210 
	C448.654785,508.988892 466.654816,508.481140 484.624176,509.703827 
	C503.398712,510.981293 520.814880,515.495972 533.992920,530.207764 
	C535.435425,531.818176 536.762634,533.536255 538.071411,535.259094 
	C538.431885,535.733704 538.532288,536.405762 538.732788,536.936218 
	C537.222778,538.536743 535.459961,538.067688 533.872253,538.066589 
	C496.879395,538.041016 459.886566,537.937927 422.893707,537.942688 
	C405.488403,537.944885 389.130920,534.725464 375.140991,523.485718 
	C365.511871,515.749451 357.869263,506.290619 352.004456,495.555786 
	C336.566132,467.297699 331.012939,437.626099 342.595978,406.681915 
	C353.722931,376.956360 374.915192,358.227722 406.744629,353.043518 
	C436.097565,348.262726 465.878632,360.207489 480.499146,385.111633 
	C484.444763,391.832428 486.557190,399.120880 487.862823,406.720154 
	C488.296021,409.241486 487.840820,410.903503 484.885956,411.311554 
	C478.294739,412.221771 471.719269,413.254700 465.153198,414.333923 
	C462.394836,414.787354 460.928802,414.289886 460.499481,411.029724 
	C457.947998,391.655518 438.962433,381.449585 423.743500,380.115204 
	C391.415375,377.280670 369.340576,406.590515 365.270599,430.363525 
	C363.005249,443.595734 365.178497,456.181610 370.186005,468.825226 
z"/>
<path fill="#000000" opacity="1.000000" stroke="none" 
	d="
M487.001099,289.360779 
	C480.401550,289.360718 474.301758,289.360718 468.245453,289.360718 
	C468.066681,300.514587 475.977509,311.197632 487.389465,315.710236 
	C502.782196,321.796936 516.558044,318.513672 528.515747,307.626129 
	C531.883850,304.559448 534.123596,304.141876 537.756470,306.930573 
	C542.100586,310.265198 546.916199,313.001160 551.615601,315.851227 
	C554.194214,317.415070 554.663269,318.862091 552.578003,321.342651 
	C540.426575,335.797943 524.973083,343.434357 506.123474,344.316406 
	C493.408203,344.911346 481.234467,342.795441 469.817719,337.060028 
	C451.743347,327.980072 442.451233,312.534332 438.097931,293.386688 
	C431.903595,266.141144 443.335388,236.475266 466.662354,222.521179 
	C497.812622,203.887222 547.642395,211.901062 558.247986,262.365906 
	C559.583923,268.722839 560.231445,275.190063 560.120361,281.709564 
	C559.985535,289.629944 559.720459,290.011200 551.972473,289.958649 
	C530.481567,289.812897 508.991302,289.567139 487.001099,289.360779 
M511.497894,266.920227 
	C515.995850,266.910950 520.493896,266.887695 524.991821,266.898132 
	C527.334167,266.903534 529.084473,266.234375 528.477966,263.440094 
	C526.922607,256.274292 524.261230,249.564468 517.924316,245.329208 
	C500.028778,233.368683 476.430725,239.868500 469.421509,261.056427 
	C467.700134,266.259827 468.065155,266.865082 473.515533,266.890350 
	C485.843079,266.947510 498.171082,266.914124 511.497894,266.920227 
z"/>
<path fill="#000000" opacity="1.000000" stroke="none" 
	d="
M489.554504,766.103760 
	C482.373016,764.774719 477.041290,760.649963 471.231598,757.037598 
	C469.287292,758.668823 471.315826,762.793640 467.889709,762.992249 
	C462.602448,763.298828 457.199402,763.992432 452.034668,762.476196 
	C449.976410,761.871948 450.694153,759.294250 450.687347,757.544250 
	C450.638000,744.890503 450.655090,732.236450 450.659668,719.582520 
	C450.669373,692.776123 450.794922,665.968994 450.595642,639.164124 
	C450.559570,634.312134 452.122650,632.861084 456.854370,632.856567 
	C470.333588,632.843567 470.358185,632.669556 470.396790,646.172241 
	C470.425812,656.326843 470.350464,666.481873 470.398010,676.636353 
	C470.406189,678.387390 469.827240,680.279114 471.219269,682.106445 
	C474.446899,680.103210 477.460663,677.749573 480.845490,676.213745 
	C497.399017,668.702820 517.179626,673.762451 527.406982,688.934265 
	C539.493225,706.863647 540.499329,726.253845 530.360962,745.189087 
	C521.986572,760.829773 507.940491,767.819946 489.554504,766.103760 
M514.738037,711.832214 
	C512.393188,702.374756 507.043854,695.612915 497.262665,693.323792 
	C488.333282,691.234009 480.899292,694.246887 474.933838,701.018372 
	C473.855438,702.242493 472.701324,703.698547 472.357758,705.222412 
	C470.286743,714.407837 469.883087,723.917419 472.309387,732.838623 
	C474.594604,741.240845 482.070251,745.385254 490.474091,746.489563 
	C498.815216,747.585632 505.500519,743.836304 510.071899,736.963135 
	C514.956970,729.618347 516.690796,721.435425 514.738037,711.832214 
z"/>
<path fill="#000000" opacity="1.000000" stroke="none" 
	d="
M576.000000,562.252625 
	C549.020325,562.231262 522.540710,562.213562 496.061035,562.179871 
	C494.065094,562.177368 492.043365,562.242981 490.078278,561.963257 
	C484.488342,561.167236 480.982330,557.165405 481.354156,552.229736 
	C481.699402,547.646606 485.719330,544.032227 490.905365,543.720276 
	C492.565094,543.620422 494.235199,543.686096 495.900543,543.686035 
	C537.035645,543.684204 578.171021,543.611816 619.305359,543.785095 
	C623.828979,543.804138 626.045776,542.377197 627.880554,538.221375 
	C645.090332,499.241730 662.512756,460.355804 679.921631,421.464203 
	C683.147705,414.257172 687.629639,411.726288 693.452637,413.496704 
	C698.201843,414.940674 700.192871,418.359955 698.513306,423.091156 
	C696.902832,427.628143 694.860596,432.017853 692.894836,436.421753 
	C675.663574,475.023895 658.330017,513.580811 641.227112,552.239685 
	C638.070923,559.373840 633.516724,562.640503 625.458618,562.410461 
	C609.150818,561.945007 592.820862,562.259460 576.000000,562.252625 
z"/>
<path fill="#000000" opacity="1.000000" stroke="none" 
	d="
M777.180054,724.994507 
	C774.971008,727.405396 772.335876,726.861145 769.914551,726.876709 
	C752.259460,726.990295 734.603699,726.994263 716.948303,727.073547 
	C710.965759,727.100464 710.194519,728.413391 712.777466,733.871216 
	C717.488770,743.826294 731.228455,749.067993 743.387085,745.450928 
	C745.444214,744.838867 747.949768,744.307190 749.260193,742.849976 
	C756.297302,735.023865 762.308289,739.122437 768.811157,743.703003 
	C772.287842,746.151978 772.809265,747.810181 769.858032,751.042908 
	C760.406555,761.395874 748.372742,765.570129 734.864624,765.071228 
	C717.253357,764.420776 702.609375,757.418884 694.468628,741.064148 
	C680.643494,713.289429 695.192017,678.458191 726.557068,673.128540 
	C751.892151,668.823547 774.918701,685.726990 777.258057,711.708984 
	C777.643005,715.984558 778.761902,720.292786 777.180054,724.994507 
M733.564636,691.168823 
	C721.855164,690.446960 710.458618,701.572693 711.792542,709.875000 
	C726.280029,710.389954 740.811584,710.814697 755.333374,709.897888 
	C755.709045,699.032776 747.463745,691.749756 733.564636,691.168823 
z"/>
<path fill="#000000" opacity="1.000000" stroke="none" 
	d="
M561.811646,683.271851 
	C568.840698,701.058105 575.699036,718.491394 582.860229,736.694458 
	C585.537903,732.879028 586.462036,729.379333 587.619568,726.022034 
	C592.717041,711.237488 597.820618,696.453857 602.714783,681.601624 
	C603.879578,678.066772 605.577393,676.323730 609.475647,676.648499 
	C614.534485,677.070190 619.678284,676.240845 625.179504,677.179932 
	C624.389771,682.662720 622.272888,687.199524 620.596619,691.812866 
	C609.513428,722.315491 597.876160,752.612549 585.417358,782.576599 
	C578.790283,798.515137 564.586304,805.129395 547.933228,801.010620 
	C542.660461,799.706543 542.273499,798.893616 544.509216,793.846802 
	C544.981140,792.781555 545.635803,791.748962 545.863159,790.631592 
	C547.052002,784.788452 549.553589,781.407471 556.365723,783.559631 
	C559.096375,784.422241 561.929993,782.929199 564.250366,781.154663 
	C570.634949,776.271790 573.471802,765.903320 570.510132,758.523560 
	C560.158997,732.730469 549.817505,706.933533 539.458618,681.143555 
	C538.963562,679.911194 538.246216,678.743469 539.288940,676.760864 
	C545.057861,676.760864 551.174866,676.519897 557.260010,676.856079 
	C560.628296,677.042114 560.277405,680.798645 561.811646,683.271851 
z"/>
<path fill="#000000" opacity="1.000000" stroke="none" 
	d="
M412.795654,765.172913 
	C404.524323,766.508301 396.754669,766.013794 389.158325,763.788269 
	C371.486786,758.611206 360.632538,746.654480 357.390442,728.816772 
	C354.003815,710.184265 358.606079,693.807190 374.591522,681.867188 
	C391.816559,669.001465 418.091370,669.758423 434.417450,683.759338 
	C435.424286,684.622803 436.336517,685.609192 437.217194,686.605164 
	C442.713013,692.821045 442.522705,693.996826 435.426239,698.029297 
	C434.702667,698.440430 433.968018,698.832214 433.237610,699.231262 
	C430.322235,700.824036 427.492371,703.473877 424.467499,703.719421 
	C421.260864,703.979614 420.282654,699.538391 417.967041,697.466919 
	C407.871918,688.436340 390.698517,691.032104 382.716248,703.549500 
	C372.899170,718.944275 378.180328,741.357849 399.362823,746.065002 
	C408.443878,748.083008 415.778259,744.492249 421.360413,737.535889 
	C423.552521,734.804138 425.268860,734.597839 428.013092,736.210571 
	C431.311035,738.148621 434.720306,739.909424 438.150940,741.606201 
	C441.614319,743.319336 442.316711,745.167603 439.718658,748.521667 
	C432.878662,757.352173 424.026367,762.732971 412.795654,765.172913 
z"/>
<path fill="#000000" opacity="1.000000" stroke="none" 
	d="
M332.574585,682.589355 
	C333.482941,677.853027 336.007874,676.246094 340.456451,676.555481 
	C345.519470,676.907593 350.625854,676.636902 355.529449,676.636902 
	C356.213135,679.672241 355.153442,681.446167 354.418762,683.261597 
	C344.114563,708.723145 333.700226,734.140808 323.555756,759.665710 
	C321.888794,763.859924 319.748962,765.513062 315.130554,765.412720 
	C302.745728,765.143616 302.799286,765.336487 298.224823,754.033752 
	C288.731445,730.576843 279.164886,707.149536 269.645081,683.703308 
	C268.849152,681.742981 267.516968,679.881409 268.379608,676.936951 
	C274.606537,676.269714 281.040436,676.445251 287.449249,676.864136 
	C289.877380,677.022827 290.161987,679.573120 290.838013,681.365234 
	C297.122711,698.025146 303.323730,714.716614 309.615479,731.373840 
	C310.299347,733.184448 310.752777,735.192993 312.917053,737.100342 
	C319.515564,718.827393 325.989410,700.899597 332.574585,682.589355 
z"/>
<path fill="#000000" opacity="1.000000" stroke="none" 
	d="
M597.283203,503.533630 
	C607.095337,507.944000 614.501221,514.580933 620.587036,522.728210 
	C619.076904,525.014404 617.249023,524.320557 615.721436,524.323486 
	C591.238892,524.369995 566.756226,524.354187 542.273621,524.362793 
	C539.766296,524.363708 537.489563,524.304626 535.443970,522.218689 
	C524.688110,511.250519 510.990784,506.442108 496.208435,504.362488 
	C486.383087,502.980255 482.269684,499.282959 480.803772,489.313232 
	C480.606903,487.974518 480.574921,486.563019 481.380005,485.438232 
	C487.431274,476.984009 493.535583,468.567749 499.923950,459.723358 
	C501.960144,462.523590 501.117981,465.145874 501.584808,467.473145 
	C505.214874,485.570740 518.235840,496.549835 536.793762,496.626404 
	C552.610840,496.691681 568.401306,496.860901 584.027222,499.684326 
	C588.445618,500.482697 592.852173,501.373383 597.283203,503.533630 
z"/>
<path fill="#000000" opacity="1.000000" stroke="none" 
	d="
M633.702332,675.592529 
	C641.242432,674.752441 641.655579,669.571167 641.555298,664.032471 
	C641.537231,663.034302 641.583313,662.035095 641.592651,661.036316 
	C641.689331,650.692505 641.688965,650.692505 652.300232,650.692871 
	C653.299072,650.692932 654.316711,650.818237 655.293640,650.672119 
	C660.125977,649.949463 661.395691,652.368835 661.145447,656.728699 
	C660.888306,661.209534 661.175598,665.719238 661.012817,670.208679 
	C660.896973,673.404541 662.122375,674.792480 665.377014,674.636597 
	C670.027710,674.413818 674.696899,674.532959 679.341675,674.242676 
	C682.560669,674.041504 683.780090,675.331970 684.054138,678.465881 
	C685.265991,692.322205 685.324097,692.269348 671.534485,692.336365 
	C659.911255,692.392822 661.120667,690.869080 661.102905,702.660278 
	C661.087341,712.981628 661.060364,723.304138 661.194946,733.624146 
	C661.318726,743.117188 666.891602,747.724609 675.845642,744.955811 
	C681.094177,743.332764 683.191467,744.983154 684.427795,749.615234 
	C684.767700,750.888794 685.433411,752.076355 685.960815,753.298523 
	C688.896118,760.099792 688.656555,760.516907 681.361206,762.826477 
	C675.017029,764.834961 668.495911,765.123901 662.119263,763.805176 
	C649.039673,761.100464 641.045471,750.746643 640.881042,736.666138 
	C640.735291,724.182495 640.890137,711.695435 640.911377,699.209839 
	C640.923035,692.334412 640.921570,692.369568 634.104004,692.243225 
	C632.167297,692.207397 630.095032,692.713867 627.904297,690.946777 
	C629.215454,685.867920 631.115479,680.814087 633.702332,675.592529 
z"/>
<path fill="#000000" opacity="1.000000" stroke="none" 
	d="
M242.681915,690.010620 
	C242.690063,676.575623 242.690063,676.575623 255.590469,676.614990 
	C263.039185,676.637695 263.153259,676.638489 263.102448,684.112183 
	C262.890900,715.231445 262.751770,746.352478 262.293488,777.468445 
	C261.993866,797.808899 243.044662,811.172668 223.624313,805.151428 
	C220.509232,804.185608 219.061890,802.623962 220.675003,799.298218 
	C221.470810,797.657532 222.171158,795.933533 222.628815,794.172974 
	C223.855743,789.453125 225.602493,786.603271 231.683929,787.453247 
	C237.800964,788.308044 242.554886,781.665222 242.606277,773.412354 
	C242.719284,755.267395 242.663818,737.121399 242.674484,718.975830 
	C242.680054,709.486816 242.680023,699.997803 242.681915,690.010620 
z"/>
<path fill="#000000" opacity="1.000000" stroke="none" 
	d="
M480.556305,454.584900 
	C495.348907,433.651672 499.961731,411.436279 489.433258,387.801239 
	C479.431549,365.348785 461.196625,352.621185 437.484070,347.356354 
	C434.934143,346.790222 432.361694,346.325378 428.141602,345.482300 
	C435.599060,340.337036 441.164001,335.047791 445.677795,327.580444 
	C458.938690,341.781982 474.878418,349.309723 492.845184,351.374146 
	C493.139099,352.393036 493.273804,352.608826 493.215881,352.694977 
	C488.411041,359.837952 491.782227,364.261963 497.260986,369.573120 
	C506.186157,378.225220 508.386261,390.147980 509.249481,402.124084 
	C510.930969,425.452454 502.400940,445.530060 488.998260,463.924744 
	C481.968170,473.573212 473.352814,482.101929 468.442749,494.476013 
	C465.606293,489.913086 465.398560,486.029175 466.101227,481.973724 
	C467.561523,473.545410 471.448273,466.282013 476.791718,459.707855 
	C478.051208,458.158295 479.160187,456.486450 480.556305,454.584900 
z"/>
<path fill="#000000" opacity="1.000000" stroke="none" 
	d="
M641.670898,811.997498 
	C624.670288,807.877014 608.712769,802.504272 595.844604,790.347473 
	C592.325684,787.023193 591.255371,784.340820 593.345886,779.609619 
	C597.646606,769.876526 601.161194,759.796875 605.038330,749.875000 
	C605.568054,748.519592 605.660156,746.898315 607.442200,745.739807 
	C609.786682,747.457825 610.294373,750.289795 611.232666,752.792114 
	C615.321228,763.695923 619.269897,774.652405 623.388123,785.544922 
	C626.955017,794.979309 632.788513,802.725098 641.052551,808.603638 
	C643.210327,810.138550 643.149353,810.224243 641.670898,811.997498 
z"/>
<path fill="#000000" opacity="1.000000" stroke="none" 
	d="
M254.641708,638.776611 
	C264.676086,640.048523 269.221619,653.252075 261.403931,660.503601 
	C257.279541,664.329346 251.912231,665.223450 247.133179,662.803467 
	C242.553391,660.484436 239.683960,655.110657 240.289413,649.986633 
	C240.947662,644.415771 244.882126,639.980957 250.257980,638.915710 
	C251.542526,638.661133 252.901840,638.783875 254.641708,638.776611 
z"/>
</svg>